<?xml version="1.0" encoding="UTF-8"?>
<svg version="1.1" xmlns="http://www.w3.org/2000/svg" width="512" height="512">
<path d="M0 0 C0.81984375 0.04382813 1.6396875 0.08765625 2.484375 0.1328125 C5.25 0.875 5.25 0.875 8.32568359 3.38598633 C12.70840694 6.57868073 16.52313001 6.54329194 21.8046875 6.44140625 C23.15616379 6.44985817 23.15616379 6.44985817 24.53494263 6.45848083 C27.39883197 6.47485734 30.26116596 6.45946266 33.125 6.4375 C35.98154951 6.42082753 38.8370671 6.41192708 41.69363403 6.42723083 C43.46453218 6.43640581 45.23565113 6.42770322 47.00631714 6.39759827 C55.88953245 6.43649687 63.04891304 9.78689195 69.47265625 15.8671875 C76.6789934 24.00797276 81.25 39.00815485 81.25 49.875 C81.96330475 49.86611755 82.6766095 49.85723511 83.41152954 49.8480835 C90.14957734 49.76777527 96.88749065 49.70695363 103.62590981 49.66775131 C107.08984499 49.6469189 110.55338313 49.61868261 114.01708984 49.57324219 C118.00353159 49.52127415 121.98981525 49.50201867 125.9765625 49.484375 C127.21427399 49.46372986 128.45198547 49.44308472 129.72720337 49.42181396 C140.51330586 49.41900652 140.51330586 49.41900652 145.25 53.875 C146.38624119 56.14748238 146.51446843 57.65802764 146.625 60.1875 C146.69847656 61.32638672 146.69847656 61.32638672 146.7734375 62.48828125 C146.16966771 65.24129124 145.14168917 66.86844908 143.10308838 68.81251526 C138.89580595 71.22479815 133.649336 70.46826271 128.94921875 70.36328125 C127.75770706 70.35620651 126.56619537 70.34913177 125.33857727 70.34184265 C121.53757628 70.31388186 117.73805486 70.25113474 113.9375 70.1875 C111.35874525 70.16241956 108.77996738 70.13960596 106.20117188 70.11914062 C99.88361082 70.06404931 93.56691112 69.98040375 87.25 69.875 C87.40033691 70.44462967 87.55067383 71.01425934 87.70556641 71.60115051 C89.26711018 77.52078679 90.82352824 83.44175351 92.37695312 89.36352539 C92.95766479 91.57448438 93.53969024 93.78509873 94.12304688 95.99536133 C94.96047639 99.1691907 95.79320039 102.34422241 96.625 105.51953125 C96.88748535 106.51024124 97.1499707 107.50095123 97.42041016 108.52168274 C97.78078369 109.90277473 97.78078369 109.90277473 98.1484375 111.31176758 C98.46820557 112.52755241 98.46820557 112.52755241 98.79443359 113.76789856 C99.25 115.875 99.25 115.875 99.25 118.875 C114.43 118.875 129.61 118.875 145.25 118.875 C143.94164842 111.05149418 143.94164842 111.05149418 142.6171875 103.23071289 C139.84114336 86.26462172 139.84114336 86.26462172 143.25 80.875 C147.19343577 78.5553319 149.37070122 77.75577305 153.9375 78.375 C157.74314048 80.09830889 158.96441141 81.41584274 161.25 84.875 C162.16308594 88.24072266 162.16308594 88.24072266 162.734375 92.0390625 C162.83969543 92.71295013 162.94501587 93.38683777 163.05352783 94.08114624 C163.38374513 96.21882472 163.69187508 98.3590381 164 100.5 C164.22126717 101.94552581 164.44391022 103.39084172 164.66796875 104.8359375 C166.25 115.19576322 166.25 115.19576322 166.25 118.875 C167.46236328 118.82279297 167.46236328 118.82279297 168.69921875 118.76953125 C169.76785156 118.74246094 170.83648437 118.71539062 171.9375 118.6875 C172.99324219 118.65269531 174.04898438 118.61789062 175.13671875 118.58203125 C178.64837978 118.91248869 180.43972614 119.78607986 183.25 121.875 C185.14441323 124.97494892 185.25323683 126.78275048 185.125 130.4375 C184.17078686 134.18619446 183.24526478 135.51509442 180.25 137.875 C176.83890111 139.58054945 173.0023683 138.92860526 169.25 138.875 C169.44032303 139.68577248 169.44032303 139.68577248 169.63449097 140.51292419 C170.91023893 146.07812355 171.91156998 151.6400977 172.7578125 157.28515625 C172.88815887 158.13806747 173.01850525 158.9909787 173.15280151 159.86973572 C173.56305939 162.55856468 173.96910294 165.24800966 174.375 167.9375 C174.65466788 169.77543326 174.93461328 171.61332431 175.21484375 173.45117188 C175.89643466 177.9253003 176.57425029 182.39998578 177.25 186.875 C178.38671143 186.95717773 178.38671143 186.95717773 179.54638672 187.04101562 C180.53912598 187.12029297 181.53186523 187.19957031 182.5546875 187.28125 C184.03171143 187.39436523 184.03171143 187.39436523 185.53857422 187.50976562 C188.25 187.875 188.25 187.875 191.375 189.375 C194.10072833 193.00930444 194.53066288 196.38439397 194.25 200.875 C193.04274538 203.86136669 192.05179008 205.27365744 189.5 207.1875 C186.40042165 208.13459338 183.47322095 207.91622724 180.25 207.875 C180.46205078 209.15141357 180.67410156 210.42782715 180.89257812 211.74291992 C181.67933544 216.48525853 182.46081842 221.22845379 183.24072266 225.97192383 C183.57880485 228.02359327 183.91831099 230.0750286 184.25927734 232.1262207 C184.74953048 235.07703005 185.23463241 238.02864738 185.71875 240.98046875 C185.87186646 241.89523483 186.02498291 242.81000092 186.18273926 243.75248718 C186.32288452 244.61300186 186.46302979 245.47351654 186.60742188 246.36010742 C186.79395325 247.48928841 186.79395325 247.48928841 186.98425293 248.64128113 C187.25 250.875 187.25 250.875 187.25 255.875 C198.14 255.875 209.03 255.875 220.25 255.875 C219.92 255.215 219.59 254.555 219.25 253.875 C218.82858341 250.13757177 218.68846248 246.38045971 218.5 242.625 C218.43167969 241.58730469 218.36335937 240.54960937 218.29296875 239.48046875 C218.01079051 233.81519794 217.89224447 229.72509132 221.25 224.875 C223.55584066 222.83268399 225.11198798 221.92940695 228.2109375 221.78125 C231.80165361 222.04821774 233.79246488 222.52304991 236.6875 224.75 C239.33844669 228.3552875 239.41788977 231.50605753 239.56640625 235.85546875 C239.60451416 236.90371826 239.64262207 237.95196777 239.68188477 239.03198242 C239.72498779 240.36205322 239.76809082 241.69212402 239.8125 243.0625 C239.956875 247.290625 240.10125 251.51875 240.25 255.875 C250.81 255.545 261.37 255.215 272.25 254.875 C272.49806159 248.69870387 272.49806159 248.69870387 272.72802734 242.52172852 C273.39510097 227.72989903 273.39510097 227.72989903 277.875 223.25 C282.05746691 221.546032 284.97740008 221.42650664 289.25 222.875 C291.63312703 224.76928046 292.9000559 226.17511179 294.25 228.875 C294.34983684 230.78951817 294.37967589 232.70788619 294.375 234.625 C294.37757813 235.65109375 294.38015625 236.6771875 294.3828125 237.734375 C294.18857822 243.78991422 293.68166119 249.83174336 293.25 255.875 C303.81 255.875 314.37 255.875 325.25 255.875 C325.58773438 253.57144531 325.92546875 251.26789063 326.2734375 248.89453125 C326.60763958 246.61725303 326.9419964 244.33999759 327.27636719 242.06274414 C327.50536938 240.50254642 327.73421541 238.94232576 327.96289062 237.38208008 C329.35654628 227.87404776 330.77181068 218.37032787 332.25 208.875 C331.59990967 208.7733252 330.94981934 208.67165039 330.2800293 208.56689453 C326.38805296 207.91927367 323.80113832 207.31859913 320.6875 204.8125 C318.68466304 200.71974621 318.36949302 197.34215927 319.25 192.875 C321 189.8125 321 189.8125 324.25 187.875 C328.28583566 187.47613978 332.20949396 187.58501153 336.25 187.875 C336.28665771 187.30934326 336.32331543 186.74368652 336.36108398 186.16088867 C337.11388614 176.42098737 338.75599211 166.82349495 340.3125 157.1875 C340.59734183 155.40695486 340.88184973 153.62635627 341.16601562 151.84570312 C341.85682906 147.52150957 342.5521562 143.19806431 343.25 138.875 C342.32767578 138.90762939 342.32767578 138.90762939 341.38671875 138.94091797 C340.57847656 138.95783691 339.77023437 138.97475586 338.9375 138.9921875 C337.73673828 139.02481689 337.73673828 139.02481689 336.51171875 139.05810547 C333.14978925 138.78592853 331.50882704 137.27500373 329.25 134.875 C327.64913373 131.67326746 327.75082911 128.34922941 328.25 124.875 C330.04363911 122.0649654 331.26880935 120.36559532 334.25 118.875 C336.4572923 118.80407158 338.66667452 118.79084975 340.875 118.8125 C342.06351562 118.82152344 343.25203125 118.83054687 344.4765625 118.83984375 C345.39179688 118.85144531 346.30703125 118.86304688 347.25 118.875 C347.28738281 118.16859375 347.32476562 117.4621875 347.36328125 116.734375 C347.82063487 109.59607145 348.59268034 102.52309465 349.5625 95.4375 C349.66796143 94.58575195 349.77342285 93.73400391 349.88208008 92.85644531 C350.65019417 87.51386694 351.8092063 84.07237357 355.25 79.875 C358.16354542 78.1115383 359.84799234 77.86662484 363.25 77.9375 C367.15492871 79.15779022 368.7774574 80.62537259 371.25 83.875 C373.00383632 90.5813793 371.54382821 96.89843234 370.375 103.625 C370.18808594 104.76066406 370.00117188 105.89632812 369.80859375 107.06640625 C368.42114955 115.36155134 368.42114955 115.36155134 367.25 118.875 C390.02 118.38 390.02 118.38 413.25 117.875 C414.10464844 114.57757813 414.95929688 111.28015625 415.83984375 107.8828125 C416.66669847 104.69891589 417.49432214 101.5152201 418.32202148 98.33154297 C418.89802261 96.11430423 419.47322076 93.89685674 420.04760742 91.67919922 C420.87208753 88.49652104 421.69942738 85.31459827 422.52734375 82.1328125 C422.78466782 81.13694122 423.04199188 80.14106995 423.30711365 79.11502075 C423.54728714 78.19421722 423.78746063 77.2734137 424.03491211 76.32470703 C424.24587021 75.5119632 424.45682831 74.69921936 424.67417908 73.86184692 C425.25 71.875 425.25 71.875 426.25 69.875 C425.58458694 69.88610306 424.91917389 69.89720612 424.2335968 69.90864563 C417.30699081 70.01927659 410.38063582 70.09468339 403.45336914 70.1496582 C400.8683045 70.17480001 398.28331093 70.20891815 395.69848633 70.25219727 C391.98240626 70.31285922 388.26726614 70.34121419 384.55078125 70.36328125 C383.39540359 70.38908768 382.24002594 70.4148941 381.04963684 70.44148254 C373.03956332 70.44428159 373.03956332 70.44428159 369.04370117 67.56323242 C366.78752514 64.18188571 366.25 61.93553883 366.25 57.875 C367.99045987 53.62054255 370.2134527 51.91959832 374.25 49.875 C376.92341614 49.49404907 376.92341614 49.49404907 379.83129883 49.48681641 C380.92626175 49.47735992 382.02122467 49.46790344 383.14936829 49.4581604 C384.32339706 49.46423309 385.49742584 49.47030579 386.70703125 49.4765625 C388.53242683 49.47225723 388.53242683 49.47225723 390.3946991 49.46786499 C392.96764593 49.46582491 395.54060829 49.4713508 398.11352539 49.48388672 C402.03762852 49.49989852 405.96069511 49.48405645 409.88476562 49.46484375 C412.3880231 49.466827 414.89127992 49.47067238 417.39453125 49.4765625 C418.56248734 49.47048981 419.73044342 49.46441711 420.93379211 49.4581604 C428.27118802 49.52098613 434.70338822 49.85764247 440.52734375 54.8125 C441.07519531 55.493125 441.62304688 56.17375 442.1875 56.875 C442.75339844 57.555625 443.31929688 58.23625 443.90234375 58.9375 C447.69943767 64.39651039 446.98299783 71.74124501 445.87145233 78.00982666 C444.56965168 84.12064729 442.93827122 90.15018095 441.3359375 96.1875 C440.81155087 98.20673004 440.28845603 100.22629593 439.76655579 102.24617004 C438.3613387 107.66945467 436.93822356 113.08788742 435.51107407 118.50543594 C434.02660879 124.15056318 432.55668701 129.79947545 431.08520508 135.44799805 C428.97430982 143.54520888 426.85735686 151.64079739 424.73393726 159.73473263 C421.3075619 172.79801416 417.92618785 185.87227359 414.57164001 198.95416641 C413.07675849 204.77744737 411.57367441 210.59861472 410.06983566 216.41958809 C408.88965732 220.98923289 407.7135819 225.55984303 406.54730225 230.13305664 C405.45973706 234.39583845 404.35905879 238.65501979 403.24828148 242.91180992 C402.84782233 244.45567622 402.45203113 246.00076265 402.06145668 247.54715919 C397.25420243 266.55614939 397.25420243 266.55614939 389.4375 272.25 C388.83292969 272.71148437 388.22835938 273.17296875 387.60546875 273.6484375 C380.89770491 277.14136925 373.64764037 277.25511259 366.25 277.5 C365.28449219 277.53867187 364.31898438 277.57734375 363.32421875 277.6171875 C360.9663256 277.71056941 358.60842244 277.79634329 356.25 277.875 C356.46148682 278.44492676 356.67297363 279.01485352 356.89086914 279.60205078 C360.46068872 289.65873654 360.67992086 299.45034701 356.51171875 309.41015625 C351.48239651 319.23524087 344.05366271 325.97928808 333.7578125 329.953125 C323.72832599 332.5889366 313.27704748 332.05346619 303.90234375 327.48828125 C294.69495185 321.88790886 288.58277685 314.80549235 285.4375 304.5 C283.10550589 294.83888155 283.75972679 285.85554643 288.25 276.875 C267.46 277.205 246.67 277.535 225.25 277.875 C226.24 280.515 227.23 283.155 228.25 285.875 C229.5333515 296.75458345 227.72559104 305.64290573 222.4375 315.125 C216.33941661 322.79116198 209.24358979 329.09556585 199.25 330.875 C186.24875515 331.75914263 175.61800996 330.53629903 165.25390625 321.859375 C157.68832896 314.36753628 153.59154676 304.70593521 153.0625 294.125 C153.14416913 287.96481416 154.44177953 282.34296361 157.25 276.875 C156.63068604 276.89071045 156.01137207 276.9064209 155.37329102 276.92260742 C152.51978995 276.9856403 149.66643609 277.02420437 146.8125 277.0625 C145.83861328 277.08763672 144.86472656 277.11277344 143.86132812 277.13867188 C134.57925617 277.23180303 126.13005028 275.46282542 119.25 268.875 C113.45510087 261.24994567 111.76408612 251.54643949 109.49609375 242.44921875 C109.04285865 240.6719167 108.58843767 238.89491672 108.13293457 237.11819458 C107.15269307 233.28514642 106.18023892 229.4502385 105.21383667 225.61367798 C103.66964889 219.48423237 102.10805839 213.35930715 100.54321289 207.23510742 C98.87722006 200.71232785 97.21210849 194.18933323 95.55247498 187.66493225 C89.45228191 163.68901705 83.24617159 139.74073867 77.03128052 115.79434204 C75.51388773 109.94710217 73.99905031 104.09920409 72.48509693 98.25107288 C69.76949635 87.76122887 67.04801768 77.27295689 64.31240559 66.78831196 C63.04088955 61.91473004 61.77508062 57.03976586 60.51786327 52.16247654 C59.72884666 49.11031114 58.92836156 46.06116378 58.12890625 43.01171875 C57.86955795 41.9951973 57.61020966 40.97867584 57.34300232 39.93135071 C57.10420853 39.03063339 56.86541473 38.12991608 56.61938477 37.2019043 C56.4241774 36.45063766 56.22897003 35.69937103 56.02784729 34.92533875 C55.1056611 32.49453505 53.98128533 30.81179744 52.25 28.875 C48.38676662 27.58725554 44.67509463 27.64117207 40.64453125 27.55859375 C39.80532639 27.53781265 38.96612152 27.51703156 38.10148621 27.49562073 C35.42190706 27.43025982 32.74223031 27.37130286 30.0625 27.3125 C28.24543263 27.26930198 26.42837512 27.22568727 24.61132812 27.18164062 C20.15765201 27.0745922 15.70387774 26.97328681 11.25 26.875 C10.92 27.865 10.59 28.855 10.25 29.875 C6.06371211 33.27635891 1.51766853 34.00691157 -3.75 33.875 C-9.98142853 32.72681192 -13.17181468 29.97120333 -16.75 24.875 C-18.84305576 20.68888848 -18.17364608 15.43367052 -17.75 10.875 C-15.45370541 5.92913474 -12.43676135 3.56739482 -7.75 0.875 C-4.75144323 -0.12451892 -3.10130833 -0.22152202 0 0 Z M104.25 138.875 C105.93855775 145.53245093 107.62848543 152.18952146 109.32202148 158.84570312 C109.89804344 161.11144365 110.4732416 163.37739377 111.04760742 165.64355469 C111.8720334 168.89573378 112.69939276 172.14715429 113.52734375 175.3984375 C113.78466782 176.41618256 114.04199188 177.43392761 114.30711365 178.48251343 C114.54728714 179.42333771 114.78746063 180.36416199 115.03491211 181.33349609 C115.24587021 182.16400482 115.45682831 182.99451355 115.67417908 183.85018921 C116.19503652 185.91965548 116.19503652 185.91965548 117.25 187.875 C130.12 187.875 142.99 187.875 156.25 187.875 C154.71909995 175.46213488 154.71909995 175.46213488 152.9609375 163.09375 C152.76290527 161.79373047 152.56487305 160.49371094 152.36083984 159.15429688 C151.99659912 156.78854492 151.99659912 156.78854492 151.625 154.375 C150.84125 149.26 150.0575 144.145 149.25 138.875 C134.4 138.875 119.55 138.875 104.25 138.875 Z M364.25 138.875 C361.90005828 151.25101103 361.90005828 151.25101103 359.86328125 163.65625 C359.66774658 164.95626953 359.47221191 166.25628906 359.27075195 167.59570312 C359.03702881 169.17287109 358.80330566 170.75003906 358.5625 172.375 C357.799375 177.49 357.03625 182.605 356.25 187.875 C369.45 187.875 382.65 187.875 396.25 187.875 C397.96119554 181.21865306 399.67094829 174.56197105 401.37695312 167.90429688 C401.95812279 165.63812522 402.54015157 163.37217372 403.12304688 161.10644531 C403.95927659 157.85538898 404.79244399 154.60356128 405.625 151.3515625 C405.88748535 150.33381744 406.1499707 149.31607239 406.42041016 148.26748657 C406.66065918 147.32666229 406.9009082 146.38583801 407.1484375 145.41650391 C407.36161621 144.58599518 407.57479492 143.75548645 407.79443359 142.89981079 C408.32316828 140.89570079 408.32316828 140.89570079 408.25 138.875 C393.73 138.875 379.21 138.875 364.25 138.875 Z M122.25 207.875 C123.75291763 214.07038882 125.26145354 220.26381532 126.78491211 226.45410156 C127.30134348 228.56003897 127.81439166 230.66680904 128.32397461 232.77441406 C129.05734047 235.80499313 129.80285032 238.83236218 130.55078125 241.859375 C130.77590897 242.80117615 131.00103668 243.74297729 131.23298645 244.71331787 C131.45298813 245.59392883 131.67298981 246.47453979 131.8996582 247.38183594 C132.08841019 248.15460876 132.27716217 248.92738159 132.47163391 249.72357178 C133.37824448 252.22947176 134.44563231 253.91526039 136.25 255.875 C139.44356333 256.42892107 139.44356333 256.42892107 143.10546875 256.265625 C143.76710526 256.25996521 144.42874176 256.25430542 145.11042786 256.24847412 C147.22019332 256.22611247 149.32824952 256.17592371 151.4375 256.125 C152.86911606 256.1049344 154.3007588 256.08668372 155.73242188 256.0703125 C159.23883515 256.02625069 162.74425072 255.95722777 166.25 255.875 C165.69976132 246.45832202 164.53727041 237.21650283 163.09326172 227.9050293 C162.74467452 225.65309649 162.40509059 223.39992574 162.06640625 221.14648438 C161.32814834 214.31051841 161.32814834 214.31051841 159.25 207.875 C147.04 207.875 134.83 207.875 122.25 207.875 Z M353.25 207.875 C352.25020737 214.06759315 351.25231075 220.26042966 350.25927734 226.45410156 C349.92088034 228.56105278 349.58136947 230.66782542 349.24072266 232.77441406 C348.75129991 235.8022714 348.26588557 238.83074822 347.78125 241.859375 C347.62813354 242.80117615 347.47501709 243.74297729 347.31726074 244.71331787 C347.17711548 245.59392883 347.03697021 246.47453979 346.89257812 247.38183594 C346.76822388 248.15460876 346.64386963 248.92738159 346.51574707 249.72357178 C346.16827362 252.17534184 346.16827362 252.17534184 346.25 255.875 C356.48 255.875 366.71 255.875 377.25 255.875 C379.70066795 250.28586541 379.70066795 250.28586541 381.50854492 244.63964844 C381.70852585 243.88907166 381.90850677 243.13849487 382.11454773 242.36517334 C382.31780167 241.57950989 382.5210556 240.79384644 382.73046875 239.984375 C383.05704216 238.74472992 383.05704216 238.74472992 383.39021301 237.4800415 C383.84567459 235.7461659 384.2984928 234.01159395 384.7487793 232.27636719 C385.43950804 229.61726966 386.14002462 226.96088937 386.84179688 224.3046875 C387.2844335 222.61473497 387.72651068 220.92463578 388.16796875 219.234375 C388.37729538 218.44061462 388.58662201 217.64685425 388.80229187 216.82904053 C389.59269101 213.76754684 390.25 211.05088415 390.25 207.875 C378.04 207.875 365.83 207.875 353.25 207.875 Z M176.875 283.4375 C173.64478891 288.28281663 173.53056284 293.22825486 174.25 298.875 C175.99263219 303.65502382 178.63016469 306.87470828 183.0625 309.375 C187.1710761 311.09397274 190.85941822 311.85352113 195.25 310.875 C200.84521764 308.47559098 204.31970237 305.26674765 207.25 299.875 C208.79033038 295.25400885 208.7885555 291.42730704 207.1875 286.8125 C204.41511765 282.60921062 200.78541764 279.14270882 196.25 276.875 C187.97218357 275.9518797 182.66863398 277.18647386 176.875 283.4375 Z M308.4375 282.9375 C304.55964534 288.14490483 304.62450842 292.49674786 305.25 298.875 C306.96221968 304.23669364 310.39869914 307.19130165 315.25 309.875 C320.35324201 311.57608067 324.56873434 311.44021247 329.4375 309.1875 C333.78267655 306.80059451 336.0819202 303.87742251 338.5625 299.625 C339.92042492 294.19330031 339.09495939 289.47438741 336.5 284.5625 C333.43617604 280.90293249 330.04395783 277.13630541 325.078125 276.671875 C317.99056216 276.54301022 313.23588369 277.36210532 308.4375 282.9375 Z " fill="#000000" transform="translate(41.75,157.125)"/>
<path d="M0 0 C19.29833294 17.28958453 32.17610912 40.73633223 34.22119141 66.82128906 C35.38778585 95.64361827 28.32126611 121.02471382 9 143 C7.53512807 144.47269153 6.05579378 145.9311358 4.5625 147.375 C-8.75996515 160.46776747 -15.0946148 175.10414666 -19 193 C-17.9275 193.680625 -16.855 194.36125 -15.75 195.0625 C-11.99114481 197.83780079 -9.2554104 200.40430123 -8 205 C-6.56209518 220.14702008 -9.66173404 234.52307729 -19.14453125 246.76953125 C-21.35000441 249.27557997 -23.62518001 251.65465473 -26 254 C-26.54140625 254.56332031 -27.0828125 255.12664062 -27.640625 255.70703125 C-39.61866296 267.17086051 -55.20624834 269.62476178 -71.0390625 269.31640625 C-77.46480708 269.02477067 -83.08194315 267.4857485 -89 265 C-89.85464844 264.67257812 -90.70929688 264.34515625 -91.58984375 264.0078125 C-105.12164113 258.15044681 -114.66457539 246.16302627 -120.3125 232.875 C-123.74966823 223.49285839 -126.69732859 212.1076423 -122.375 202.5625 C-120.18687084 198.81923619 -117.54520366 196.46622864 -114 194 C-113.34 194 -112.68 194 -112 194 C-116.23003507 175.10719914 -122.36173368 161.75239408 -136 148 C-143.21131521 140.55434367 -148.92678368 133.05443989 -154 124 C-154.47179687 123.18015625 -154.94359375 122.3603125 -155.4296875 121.515625 C-167.40684446 99.34672578 -169.14498886 71.86179292 -162.38183594 47.80078125 C-158.04129617 34.12839687 -151.39655861 21.8533894 -142 11 C-141.39671875 10.25234375 -140.7934375 9.5046875 -140.171875 8.734375 C-125.08253856 -9.39818895 -101.65750952 -20.7404247 -78.4609375 -23.71875 C-49.56637097 -26.06684119 -22.49119804 -18.95854913 0 0 Z M-100 4 C-100.92039062 4.44214844 -101.84078125 4.88429688 -102.7890625 5.33984375 C-122.5418049 15.38313953 -135.64413002 33.15271711 -142.9765625 53.7421875 C-149.1898018 75.6336942 -144.81316586 97.86948561 -133.96533203 117.33642578 C-131.93313003 120.83855639 -129.66690108 123.9594751 -127 127 C-126.32195312 127.7734375 -125.64390625 128.546875 -124.9453125 129.34375 C-121.91769988 132.73802851 -118.87071389 136.1026316 -115.703125 139.3671875 C-101.74819794 154.04392113 -95.27963814 172.32217116 -92 192 C-74.84 192 -57.68 192 -40 192 C-38.68 186.39 -37.36 180.78 -36 175 C-30.30414454 158.51199735 -22.07095668 144.61205742 -9.4375 132.5625 C5.90005079 117.61488694 13.79997813 97.1893501 14.375 75.9375 C13.73384146 51.40621672 3.04905249 31.3040499 -14.3671875 14.75 C-37.6825481 -5.3467418 -72.56121791 -9.7980122 -100 4 Z M-104 213 C-101.63196 224.84019999 -98.13655304 235.27758907 -87.8671875 242.5 C-85.6221686 243.8141574 -83.37464154 244.93924642 -81 246 C-79.93458984 246.47953125 -79.93458984 246.47953125 -78.84765625 246.96875 C-69.46227839 250.63464804 -59.17412959 249.99006624 -50 246 C-40.86505241 241.24189708 -33.8605875 233.95397353 -29.69140625 224.53125 C-28.6677589 220.78365971 -28.42901315 216.86111831 -28 213 C-53.08 213 -78.16 213 -104 213 Z " fill="#000000" transform="translate(364,96)"/>
<path d="M0 0 C2 1.75 2 1.75 3 4 C3.1875 7.25 3.1875 7.25 3 10 C3.825 10.185625 4.65 10.37125 5.5 10.5625 C12.70696337 13.52250281 17.66265061 18.82576012 21.16015625 25.7265625 C22.76455082 30.06962129 22.58701167 33.82805682 21.375 38.3125 C19.23394082 40.94016354 17.17613688 41.86138489 14 43 C10.4375 43.0625 10.4375 43.0625 7 42 C3.65911177 38.65911177 1.41480615 35.02467691 -1 31 C-4.21804148 29.39097926 -7.51947705 29.40157017 -11 30 C-14.2883921 32.71292348 -14.90851499 34.34816929 -15.5 38.5625 C-14.9257958 42.51015385 -14.11700276 43.61640965 -11 46 C-8.46515053 47.26742474 -6.1853866 47.4318527 -3.375 47.8125 C5.78980311 49.32354281 12.16428983 52.65352222 18 60 C23.10383174 68.41358929 24.60438728 77.07987174 22.3515625 86.796875 C19.13569308 95.64738743 13.49765091 102.00110545 5 106 C4.34 106 3.68 106 3 106 C3.1546875 107.3303125 3.1546875 107.3303125 3.3125 108.6875 C3 112 3 112 0.9375 114.8125 C-2.57532691 117.42843493 -4.63581445 118 -9 118 C-12.69196088 116.40574416 -14.96287219 114.46311728 -17 111 C-17.10570312 110.17757812 -17.21140625 109.35515625 -17.3203125 108.5078125 C-17.74110672 105.89056599 -17.74110672 105.89056599 -19.8203125 104.734375 C-20.96113281 104.24710938 -20.96113281 104.24710938 -22.125 103.75 C-28.61671146 100.46790665 -32.34054215 95.38805978 -35.5 88.9375 C-36.20109326 84.81857712 -35.99231413 82.10156505 -35 78 C-32.82070563 75.27588204 -31.27570513 74.2426613 -27.84375 73.58984375 C-23.59578339 73.31372592 -21.57889849 73.58122237 -18.0625 76.125 C-15.95921537 79.05685131 -15.08425815 81.59233153 -14 85 C-10.29090696 86.23636435 -6.85532145 86.55187061 -3 86 C0.06458538 83.95694308 0.82153128 82.55920198 1.9375 79.0625 C2.01327396 75.34957588 1.3135507 73.87199397 -1 71 C-4.16055995 69.04045283 -7.02656556 68.6229837 -10.6875 68.1875 C-19.73409257 66.74576809 -25.78406245 63.15344407 -31.5625 56.05078125 C-36.05307821 49.64438571 -37.50802496 42.74738063 -37 35 C-34.80622166 24.83764445 -30.25962893 18.25925005 -22 12 C-21.278125 11.67257813 -20.55625 11.34515625 -19.8125 11.0078125 C-17.58545332 10.0462994 -17.58545332 10.0462994 -17 6.625 C-16.67 5.42875 -16.34 4.2325 -16 3 C-11.39347422 -2.83493265 -6.50653335 -2.55564473 0 0 Z " fill="#000000" transform="translate(305,114)"/>
<path d="M0 0 C2.8100346 1.79363911 4.50940468 3.01880935 6 6 C6.3846577 11.09671446 6.06822719 13.90483024 3 18 C0.77002856 19.62360056 -1.30246841 20.97678093 -3.6875 22.3125 C-4.27466797 22.67150391 -4.86183594 23.03050781 -5.46679688 23.40039062 C-10.15182574 26.0768217 -13.62010909 26.54701197 -19 26 C-21.69105198 23.82425584 -23.45532928 22.08934144 -25 19 C-25.42083703 14.26558338 -24.81997962 11.81015727 -22 8 C-19.77002856 6.37639944 -17.69753159 5.02321907 -15.3125 3.6875 C-14.43174805 3.14899414 -14.43174805 3.14899414 -13.53320312 2.59960938 C-8.84280904 -0.0798867 -5.38430844 -0.5023097 0 0 Z " fill="#000000" transform="translate(422,93)"/>
<path d="M0 0 C2.62160175 2.0972814 3.62755133 3.64564119 4.515625 6.875 C5.3702527 14.62362451 0.48364944 21.09271004 -4 27 C-7.20837795 29.94153026 -9.59826158 30.57855651 -14.03125 30.4296875 C-17.37060301 29.70086045 -18.95719561 27.59993286 -21 25 C-22.79833279 21.40333442 -22.00184875 17.73766648 -21 14 C-16.15923481 4.67842396 -11.62034993 -3.32009998 0 0 Z " fill="#000000" transform="translate(373,43)"/>
<path d="M0 0 C7.11737078 3.93526585 9.94366071 9.67879757 13 17 C13.76364868 20.21859979 13.65669106 21.65684549 13 25 C11.20636089 27.8100346 9.98119065 29.50940468 7 31 C1.9043262 31.38457915 -0.90788378 31.07223495 -5 28 C-6.62000031 25.74952836 -7.97695516 23.65246017 -9.3125 21.25 C-9.67150391 20.65445313 -10.03050781 20.05890625 -10.40039062 19.4453125 C-12.84631826 15.14047985 -13.46975895 11.90571052 -13 7 C-11.73001681 4.14253783 -10.7161997 2.51862737 -8.1875 0.6875 C-5.22019177 -0.24508259 -3.10315844 -0.37237901 0 0 Z " fill="#000000" transform="translate(232,42)"/>
<path d="M0 0 C9.52325581 5.54651163 9.52325581 5.54651163 11.375 9.25 C11.9561138 16.33958838 11.9561138 16.33958838 9.5 20.1875 C6.44734954 23.15036662 4.15244387 23.76576882 -0.1328125 23.734375 C-7.01846357 22.39609799 -14.08938126 17.52591513 -18.625 12.25 C-19.76232753 8.15562087 -19.87724268 5.95362431 -18.4375 1.9375 C-13.68107221 -5.11513431 -6.78502252 -3.6162435 0 0 Z " fill="#000000" transform="translate(187.625,95.75)"/>
<path d="M0 0 C0.89009766 -0.03287109 1.78019531 -0.06574219 2.69726562 -0.09960938 C7.10885561 -0.13558231 10.2281823 -0.03390574 13.7578125 2.78515625 C16.60263216 5.89067482 17.27138359 7.24332032 17.1875 11.4375 C15.17277442 17.79979131 15.17277442 17.79979131 12.36108398 19.61962891 C8.42955546 21.09897526 4.40519731 20.80653417 0.25 20.8125 C-0.64396484 20.83699219 -1.53792969 20.86148438 -2.45898438 20.88671875 C-6.65584232 20.90541299 -9.17503413 20.80049012 -12.87890625 18.69140625 C-15.89906728 15.17093572 -16.10382443 11.9692134 -15.8125 7.4375 C-12.55271595 -0.22299251 -7.35136488 0.04729255 0 0 Z " fill="#000000" transform="translate(429.8125,161.5625)"/>
<path d="M0 0 C0.89460938 -0.03738281 1.78921875 -0.07476562 2.7109375 -0.11328125 C7.06120453 -0.17102816 10.29512428 -0.10983587 13.84375 2.5859375 C16.36678872 5.51036874 17.07105256 6.58553026 17 10.375 C17.01546875 11.2 17.0309375 12.025 17.046875 12.875 C16.09769934 15.85280599 14.67477833 17.51345882 12.18896484 19.39794922 C8.36370489 21.32551033 4.38224457 21.05103734 0.1875 20.9375 C-1.13991211 20.95393555 -1.13991211 20.95393555 -2.49414062 20.97070312 C-6.74522399 20.92286648 -9.13887297 20.75666171 -12.80859375 18.46484375 C-15.83594649 15.20602339 -16.08343483 12.86533179 -16.04296875 8.4140625 C-15.58745033 5.24365433 -13.99684343 3.5557598 -11.75 1.375 C-8.14031177 -0.42984412 -3.9755929 0.06194267 0 0 Z " fill="#000000" transform="translate(165.75,161.625)"/>
<path d="M0 0 C1.12535156 -0.05994141 1.12535156 -0.05994141 2.2734375 -0.12109375 C6.07626267 0.78223515 7.360512 2.26250729 9.625 5.4375 C10.38083458 9.11937611 10.36891102 12.6898461 10.3125 16.4375 C10.34021484 17.42234375 10.36792969 18.4071875 10.39648438 19.421875 C10.37303001 26.36436747 10.37303001 26.36436747 8.38354492 29.21850586 C5.72322087 31.57582408 3.1456479 33.12507908 -0.4375 33 C-4.74867078 32.38411846 -6.41828652 31.57340824 -9.375 28.4375 C-10.70870041 24.43639877 -10.59835475 20.75246597 -10.625 16.5625 C-10.645625 15.75941406 -10.66625 14.95632812 -10.6875 14.12890625 C-10.71864082 9.40328619 -10.47838918 6.25147829 -7.375 2.4375 C-4.35292605 0.42278403 -3.45773301 0.10030966 0 0 Z " fill="#000000" transform="translate(298.375,23.5625)"/>
</svg>
